<?xml version="1.0" encoding="UTF-8" standalone="no"?>
<svg
   xmlns:dc="http://purl.org/dc/elements/1.1/"
   xmlns:cc="http://creativecommons.org/ns#"
   xmlns:rdf="http://www.w3.org/1999/02/22-rdf-syntax-ns#"
   xmlns:svg="http://www.w3.org/2000/svg"
   xmlns="http://www.w3.org/2000/svg"
   xmlns:sodipodi="http://sodipodi.sourceforge.net/DTD/sodipodi-0.dtd"
   xmlns:inkscape="http://www.inkscape.org/namespaces/inkscape"
   height="80.191994"
   width="99.433395"
   xml:space="preserve"
   version="1.1"
   style="clip-rule:evenodd;fill:#000000;fill-rule:evenodd;image-rendering:optimizeQuality;shape-rendering:geometricPrecision;text-rendering:geometricPrecision"
   viewBox="0 0 841.86279 678.95353"
   x="0px"
   y="0px"
   id="svg3721"
   sodipodi:docname="header-icon-left.svg"
   inkscape:export-filename="C:\Remillard\mass-trails.org\header-icon-left.png"
   inkscape:export-xdpi="31.125301"
   inkscape:export-ydpi="31.125301"
   inkscape:version="0.92.5 (2060ec1f9f, 2020-04-08)"><metadata
     id="metadata3725"><rdf:RDF><cc:Work
         rdf:about=""><dc:format>image/svg+xml</dc:format><dc:type
           rdf:resource="http://purl.org/dc/dcmitype/StillImage" /><dc:title></dc:title></cc:Work></rdf:RDF></metadata><sodipodi:namedview
     pagecolor="#ffffff"
     bordercolor="#666666"
     borderopacity="1"
     objecttolerance="10"
     gridtolerance="10"
     guidetolerance="10"
     inkscape:pageopacity="0"
     inkscape:pageshadow="2"
     inkscape:window-width="2560"
     inkscape:window-height="1377"
     id="namedview3723"
     showgrid="false"
     inkscape:zoom="6.05"
     inkscape:cx="-11.154087"
     inkscape:cy="29.193332"
     inkscape:window-x="-8"
     inkscape:window-y="-8"
     inkscape:window-maximized="1"
     inkscape:current-layer="g3719"
     fit-margin-top="0"
     fit-margin-left="0"
     fit-margin-right="0"
     fit-margin-bottom="0" /><defs
     id="defs3715"><style
       type="text/css"
       id="style3713">
   
    .fil0 {fill:#000000}
   
  </style></defs><g
     id="g3719"
     transform="matrix(1.094619,0,0,1.1384452,-42.449329,-142.47205)"
     inkscape:export-xdpi="31.125299"
     inkscape:export-ydpi="31.125299"><path
       class="fil0"
       d="M 182.3,291.73 38.78,318.91 h 166.87 c 0,0 24.19,6.79 24.19,29.72 0,18.14 0,63.4 0,81.5 0,31.59 26.99,45.87 56.9,45.87 27.07,0 84.76,-12.99 144.33,-13.63 24.02,-0.26 48.72,5.59 73.35,12.24 l 92.83,88.6 96.84,109.85 -22.72,24.43 c -12.73,13.67 8.05,33.05 20.8,19.37 l 31.01,-33.35 c 5.41,-5.26 5.8,-13.9 0.76,-19.62 L 618.37,544.17 c -0.25,-0.29 -0.53,-0.57 -0.81,-0.84 l -57.02,-54.42 c 25.46,5.04 50.2,6.42 73.31,-2.13 l 27.32,20.67 114.82,114.83 -17.18,31.13 c -9.01,16.36 15.87,30.08 24.89,13.71 l 21.76,-39.44 c 3.72,-5.54 3.14,-13.13 -1.76,-18.03 L 680.79,486.79 c -0.46,-0.45 -0.94,-0.88 -1.48,-1.28 L 660.67,471.4 c 12.02,-9.7 23.44,-23.23 34.1,-41.69 0,0 -94.73,-0.55 -115.49,-36.51 -20.76,-35.95 44.58,-218.66 222.9,-254.32 0,0 -254.26,-29.15 -337.12,148.6 0,0 -152,-193.61 -369.39,-157.95 0,0 234.3,98.07 271.73,237.77 0,0 -45.44,47.22 -70.09,61.93 -21.87,13.04 -40.72,-1.18 -40.72,-26.26 0,-27.18 0,-61.57 0,-61.57 0,0 33.54,-101.9 -74.29,-49.67 z m 46.51,-3.83 c 6.49,0 11.76,3.83 11.76,8.56 0,4.73 -5.27,8.56 -11.76,8.56 -6.48,0 -11.75,-3.83 -11.75,-8.56 0,-4.73 5.27,-8.56 11.75,-8.56 z"
       id="path3717"
       inkscape:connector-curvature="0"
       style="fill:#1b5031;fill-opacity:1;"
       inkscape:export-xdpi="31.125301"
       inkscape:export-ydpi="31.125301" /></g></svg>