<?xml version="1.0" standalone="no"?>
<!DOCTYPE svg PUBLIC "-//W3C//DTD SVG 20010904//EN"
 "http://www.w3.org/TR/2001/REC-SVG-20010904/DTD/svg10.dtd">
<svg version="1.0" xmlns="http://www.w3.org/2000/svg"
 width="700.000000pt" height="700.000000pt" viewBox="0 0 700.000000 700.000000"
 preserveAspectRatio="xMidYMid meet">
<metadata>
Created by potrace 1.11, written by Peter Selinger 2001-2013
</metadata>
<g transform="translate(0.000000,700.000000) scale(0.100000,-0.100000)"
fill="#000000" stroke="none">
<path d="M1135 5963 c-100 -4 -295 -24 -317 -32 -14 -5 2 -16 69 -45 49 -22
158 -75 243 -119 1020 -526 1688 -1138 1884 -1727 l25 -75 -72 -73 c-100 -102
-327 -308 -414 -374 -103 -80 -155 -103 -228 -103 -99 1 -163 57 -192 167 -21
83 -18 571 4 652 12 42 17 100 18 186 0 120 -1 127 -29 178 -21 38 -44 61 -75
80 -41 24 -55 27 -141 26 -105 0 -180 -19 -323 -80 -69 -30 -154 -49 -552
-125 -662 -126 -678 -129 -683 -134 -3 -3 303 -5 679 -5 676 0 685 0 724 -21
59 -31 95 -68 121 -124 24 -50 24 -51 24 -436 0 -360 1 -391 20 -452 36 -117
137 -202 285 -242 87 -24 248 -20 475 10 330 43 522 64 707 75 252 16 385 4
655 -61 l126 -30 385 -367 c331 -316 421 -409 653 -672 147 -168 328 -372 400
-455 l132 -149 -91 -99 c-108 -115 -127 -142 -127 -180 0 -85 96 -147 167
-108 22 11 280 282 306 321 27 39 22 102 -10 142 -16 18 -227 258 -470 533
-344 389 -483 539 -627 675 -103 96 -200 188 -216 205 l-31 32 83 -14 c46 -7
139 -14 208 -14 115 0 144 3 295 38 14 3 54 -21 130 -78 83 -61 225 -196 583
-553 259 -259 472 -475 472 -480 0 -5 -34 -71 -75 -147 -82 -151 -91 -187 -53
-234 53 -68 148 -66 192 3 48 76 195 349 201 375 4 15 4 39 0 54 -8 36 -1009
1041 -1120 1126 -44 33 -82 62 -84 64 -2 1 32 40 75 85 65 68 194 241 194 260
0 3 -53 8 -117 12 -347 20 -654 108 -776 224 -16 15 -40 47 -55 71 -76 129
-12 455 154 791 194 392 497 735 859 975 192 127 486 256 698 307 53 12 97 25
97 29 0 13 -342 19 -507 9 -298 -17 -502 -46 -741 -105 -293 -72 -553 -179
-783 -321 -276 -171 -528 -437 -669 -706 l-51 -97 -207 208 c-290 292 -510
467 -823 656 -542 327 -1132 491 -1684 468z m826 -1371 c26 -23 31 -33 25 -55
-20 -81 -186 -70 -186 12 0 68 103 95 161 43z"/>
</g>
</svg>
